<svg xmlns="http://www.w3.org/2000/svg" width="35" height="35" viewBox="0 0 35 35">
  <path fill="#EF4B40" d="M140.317352,715.953648 C134.868803,718.039453 131,723.317923 131,729.5 C131,737.508129 137.491871,744 145.5,744 C146.27727,744 147.040255,743.938842 147.784407,743.821076 L140.317352,715.953648 Z M143.215593,715.178924 L146.56066,727.662883 L159.046352,724.317352 C156.960547,718.868803 151.682077,715 145.5,715 C144.72273,715 143.959745,715.061158 143.215593,715.178924 Z M159.821076,727.215593 L147.337117,730.56066 L150.682648,743.046352 C156.131197,740.960547 160,735.682077 160,729.5 C160,728.72273 159.938842,727.959745 159.821076,727.215593 Z M145.5,747 C135.835017,747 128,739.164983 128,729.5 C128,719.835017 135.835017,712 145.5,712 C155.164983,712 163,719.835017 163,729.5 C163,739.164983 155.164983,747 145.5,747 Z" transform="translate(-128 -712)"/>
</svg>
